<svg width="46" height="47" viewBox="0 0 46 47" fill="none" xmlns="http://www.w3.org/2000/svg">
<path d="M36.0848 32.8545C38.3606 32.3834 40.3836 31.0672 41.7609 29.1613C43.1382 27.2554 43.7717 24.8958 43.5383 22.5406C43.3049 20.1854 42.2213 18.0026 40.4979 16.416C38.7745 14.8294 36.5342 13.9521 34.2119 13.9545H31.8521C31.2316 11.5057 30.0242 9.25236 28.3383 7.39672C26.6525 5.54107 24.541 4.14123 22.1933 3.32287C19.8456 2.5045 17.3353 2.29323 14.8878 2.70803C12.4402 3.12283 10.132 4.15071 8.17043 5.69939C6.20884 7.24807 4.65525 9.26906 3.64916 11.5809C2.64306 13.8928 2.21594 16.4231 2.40616 18.9448C2.59637 21.4665 3.39796 23.9005 4.73896 26.0285C6.07996 28.1564 7.91838 29.9115 10.0892 31.1363" stroke="#86868B" stroke-width="2" stroke-linecap="round" stroke-linejoin="round"/>
<path d="M24.8475 21.5908L17.356 33.0454H28.5932L21.1017 44.4999" stroke="#FB8700" stroke-width="2" stroke-linecap="round" stroke-linejoin="round"/>
</svg>
